PathFileType	4	(X/Y/Z)	/Users/itak/Documents/Research/Walk-IL/dataset/trc/00565_00009.trc
DataRate	CameraRate	NumFrames	NumMarkers	Units	OrigDataRate	OrigDataStartFrame	OrigNumFrames
100.000000	100.000000	4	54	mm	100.000000	286	573
Frame#	Time	RPSI			LPSI			L3			STRN			T10			C7			CLAV			RBAK			LBAK			LSHO			LUPA			LAEL			LAOL			LWTS			LWPS			LFRA			LHPS			LHTS			RSHO			RUPA			RAEL			RAOL			RWTS			RWPS			RFRA			RIFD			RHTS			RHPS			RBHD			LFHD			RFHD			LBHD			RHIP			RASI			LASI			LKNE			LTHI			LANK			LTIP			LTOE			LMT1			LMT5			LHEE			RKNE			RTHI			RANK			RTIP			RTOE			RMT1			RMT5			RHEE			LHIP			LIFD			*53			
		X1	Y1	Z1	X2	Y2	Z2	X3	Y3	Z3	X4	Y4	Z4	X5	Y5	Z5	X6	Y6	Z6	X7	Y7	Z7	X8	Y8	Z8	X9	Y9	Z9	X10	Y10	Z10	X11	Y11	Z11	X12	Y12	Z12	X13	Y13	Z13	X14	Y14	Z14	X15	Y15	Z15	X16	Y16	Z16	X17	Y17	Z17	X18	Y18	Z18	X19	Y19	Z19	X20	Y20	Z20	X21	Y21	Z21	X22	Y22	Z22	X23	Y23	Z23	X24	Y24	Z24	X25	Y25	Z25	X26	Y26	Z26	X27	Y27	Z27	X28	Y28	Z28	X29	Y29	Z29	X30	Y30	Z30	X31	Y31	Z31	X32	Y32	Z32	X33	Y33	Z33	X34	Y34	Z34	X35	Y35	Z35	X36	Y36	Z36	X37	Y37	Z37	X38	Y38	Z38	X39	Y39	Z39	X40	Y40	Z40	X41	Y41	Z41	X42	Y42	Z42	X43	Y43	Z43	X44	Y44	Z44	X45	Y45	Z45	X46	Y46	Z46	X47	Y47	Z47	X48	Y48	Z48	X49	Y49	Z49	X50	Y50	Z50	X51	Y51	Z51	X52	Y52	Z52	X53	Y53	Z53	X54	Y54	Z54	

287	2.86	-229.6727447509766	989.2444458007812	36.88724899291992	-139.2548370361328	1006.257446289062	-60.03378677368164	-180.677978515625	1100.431640625	-5.852879524230957	-2.786848068237305	1282.812866210938	154.4264221191406	-185.2901306152344	1226.110961914062	-6.80858325958252	-155.6373443603516	1499.277099609375	49.35589981079102	-17.33200836181641	1393.321899414062	147.4673004150391	-266.1822814941406	1373.357177734375	62.18276977539062	-122.6653594970703	1451.276611328125	-45.67752456665039	4.784334659576416	1475.192260742188	-45.16194534301758	53.49521255493164	1355.742309570312	-119.5079727172852	104.9457778930664	1141.265625	-142.2095794677734	6.07799768447876	1120.874145507812	-153.922119140625	185.3179321289062	906.7947387695312	-55.85172653198242	194.7280426025391	887.8297119140625	-140.6283721923828	138.6456756591797	1059.1337890625	-137.3236389160156	206.6717224121094	828.85009765625	-131.2341613769531	222.6137542724609	834.5614013671875	-65.20728302001953	-211.0204315185547	1454.654907226562	203.3993988037109	-267.8543395996094	1387.621826171875	241.1224060058594	-296.3026428222656	1097.193237304688	262.7278747558594	-320.1493225097656	1081.729858398438	205.7888946533203	-169.1170043945312	875.7345581054688	317.1884155273438	-246.6010284423828	855.0347290039062	335.9317932128906	-293.5767211914062	1041.716796875	273.3848571777344	-164.5478363037109	702.0120849609375	318.9123229980469	-158.7127380371094	782.6318359375	343.0816040039062	-232.6340789794922	780.21435546875	342.4508666992188	-123.1865234375	1678.953369140625	165.4054565429688	82.59834289550781	1672.7939453125	192.2780303955078	-36.131591796875	1668.111083984375	274.6719665527344	16.57090377807617	1681.100463867188	76.59081268310547	-213.5445709228516	918.1160888671875	210.7477722167969	-114.3089141845703	960.136962890625	224.8424530029297	70.63623809814453	970.8641967773438	19.94566535949707	95.99076843261719	506.2705688476562	22.39092826843262	94.72109985351562	672.3387451171875	-16.54049682617188	49.35141372680664	30.68091011047363	-60.27790451049805	66.89008331298828	256.2319946289062	-35.31222915649414	141.5771942138672	40.62153625488281	139.4056549072266	68.04105377197266	43.67239379882812	106.2925415039062	140.7910003662109	34.78567886352539	22.29906845092773	-37.23002243041992	35.29341125488281	-75.76580810546875	-69.82306671142578	500.5371704101562	277.0358581542969	-149.7025909423828	778.642333984375	254.416259765625	-322.0284729003906	197.4229736328125	16.07564353942871	-116.2969818115234	379.6944580078125	216.9228973388672	-182.1535186767578	53.31526947021484	99.38456726074219	-190.4819488525391	88.27798461914062	32.16555404663086	-269.6961669921875	108.8710174560547	96.86896514892578	-317.3169555664062	223.8211822509766	-56.06791305541992	51.81365203857422	946.6845703125	-72.20658111572266	210.4635925292969	738.8878784179688	-66.27556610107422	nan	nan	nan	
288	2.87	-223.7764129638672	989.94580078125	40.69882583618164	-132.5544738769531	1006.884155273438	-55.39661407470703	-174.0198669433594	1101.23388671875	-2.175090551376343	2.64382266998291	1283.028442382812	160.5460052490234	-178.0308074951172	1226.973999023438	-3.1291184425354	-148.0196685791016	1499.991455078125	53.58744812011719	-11.56406021118164	1393.600830078125	153.6788330078125	-259.037841796875	1374.374755859375	64.53087615966797	-113.7317428588867	1452.01513671875	-40.94596481323242	13.70706081390381	1475.74951171875	-38.38183975219727	64.13295745849609	1356.692749023438	-112.0235214233398	117.7285003662109	1142.68359375	-133.8238677978516	19.31420516967773	1121.412353515625	-147.7010345458984	198.5717620849609	909.42138671875	-44.84848785400391	209.92333984375	890.1689453125	-129.3757019042969	152.0723724365234	1060.907470703125	-127.9480819702148	222.2912902832031	831.37109375	-119.4922027587891	236.8389129638672	837.5418701171875	-53.16823959350586	-205.938232421875	1455.468627929688	206.6634368896484	-263.5753173828125	1388.63818359375	243.4387817382812	-293.6629028320312	1098.382690429688	264.5997009277344	-316.6252136230469	1082.743408203125	207.4232482910156	-166.2019195556641	878.1505737304688	322.228515625	-243.8211212158203	856.7547607421875	339.4010925292969	-290.9559326171875	1042.912231445312	275.5065307617188	-159.6622161865234	704.686767578125	325.5516662597656	-155.3681030273438	785.5423583984375	349.2720947265625	-229.1584014892578	782.1663818359375	346.8692626953125	-116.7809600830078	1679.417724609375	170.4765777587891	88.58428955078125	1672.80908203125	199.9618530273438	-31.14484024047852	1668.28466796875	280.8281555175781	24.05906677246094	1681.37060546875	83.42338562011719	-208.922119140625	919.6030883789062	215.0296173095703	-109.5534591674805	961.2160034179688	228.7910919189453	77.12952423095703	971.0306396484375	25.45650482177734	98.37477874755859	505.4928588867188	24.4052619934082	98.84140014648438	671.9379272460938	-13.05785655975342	49.27517700195312	30.82388114929199	-60.20694732666016	67.78240203857422	255.9638366699219	-34.38318252563477	141.6737518310547	40.60865020751953	139.3972930908203	68.02257537841797	43.61700820922852	106.359001159668	140.7303161621094	34.79344940185547	22.33096694946289	-37.36509704589844	35.37574768066406	-75.68029022216797	-60.49083709716797	504.1089172363281	287.2484436035156	-144.1971740722656	781.1441040039062	260.7250061035156	-300.6081237792969	188.0881805419922	29.02091979980469	-103.4014739990234	380.9677734375	228.6454162597656	-156.6861877441406	52.69641494750977	118.6598434448242	-165.1393737792969	85.30485534667969	50.20406341552734	-246.1712799072266	104.2573547363281	113.0527877807617	-296.0960083007812	212.7332611083984	-43.81017303466797	58.11706924438477	946.7214965820312	-66.89321136474609	225.6825256347656	741.7462158203125	-54.09599685668945	nan	nan	nan	
289	2.88	-217.8854522705078	990.5302734375	44.55859375	-125.8854446411133	1007.386901855469	-50.71709442138672	-167.4603271484375	1101.885620117188	1.553434252738953	7.994879245758057	1283.111572265625	166.6811370849609	-170.8770141601562	1227.685546875	0.6598142981529236	-140.5387420654297	1500.563232421875	57.90132141113281	-5.898429393768311	1393.756103515625	159.9127655029297	-251.9412689208984	1375.193359375	66.98804473876953	-104.9804840087891	1452.599853515625	-36.11789321899414	22.43138694763184	1476.162353515625	-31.55720138549805	74.55092620849609	1357.484619140625	-104.4458236694336	130.3521270751953	1143.977661132812	-125.2522125244141	32.44840240478516	1121.803955078125	-141.2237243652344	211.6597900390625	911.9246826171875	-33.68653869628906	224.8992309570312	892.4168701171875	-117.9279479980469	165.3185272216797	1062.559692382812	-118.381462097168	237.6479339599609	833.7933349609375	-107.5606918334961	250.8197174072266	840.3922119140625	-40.97571182250977	-200.9298400878906	1456.121704101562	210.002197265625	-259.3151550292969	1389.476928710938	245.8147888183594	-291.0143127441406	1099.39697265625	266.4721374511719	-313.0885620117188	1083.577758789062	209.0725250244141	-163.3010559082031	880.4375	327.2987976074219	-241.0218200683594	858.32470703125	342.8917846679688	-288.3202819824219	1043.94140625	277.6402893066406	-154.8246154785156	707.244384765625	332.2623291015625	-152.0601043701172	788.3511962890625	355.51904296875	-225.68408203125	783.9864501953125	351.3459167480469	-110.4974212646484	1679.760131835938	175.5957183837891	94.42310333251953	1672.679443359375	207.6836853027344	-26.28428268432617	1668.327392578125	287.0067443847656	31.40748596191406	1681.528198242188	90.29527282714844	-204.2789459228516	920.9564208984375	219.3475646972656	-104.7412490844727	962.0966186523438	232.8325347900391	83.58296203613281	971.1039428710938	31.00906181335449	100.7879638671875	504.69140625	26.40508270263672	102.9617691040039	671.4856567382812	-9.588541030883789	49.19678497314453	30.96060562133789	-60.14051818847656	68.66539764404297	255.6973571777344	-33.46015548706055	141.7695159912109	40.60124588012695	139.3832244873047	68.00635528564453	43.57019424438477	106.4185180664062	140.6620635986328	34.78641510009766	22.36143493652344	-37.50628662109375	35.46290969848633	-75.59349822998047	-51.7983512878418	507.5108337402344	297.3472595214844	-138.9181671142578	783.5005493164062	267.0078430175781	-278.8978881835938	178.0223693847656	42.71001052856445	-90.97271728515625	381.9606628417969	240.4754180908203	-131.3011322021484	52.05424880981445	138.9200286865234	-139.7306365966797	82.14328765869141	69.28167724609375	-222.6095581054688	99.32973480224609	130.0694427490234	-274.4122619628906	200.749267578125	-30.74781227111816	64.39353942871094	946.6793212890625	-61.54342269897461	240.5749359130859	744.4702758789062	-41.74756240844727	nan	nan	nan	
290	2.89	-211.9919281005859	991.0089721679688	48.45038223266602	-119.2245788574219	1007.773742675781	-46.00368881225586	-160.9929809570312	1102.401245117188	5.338127136230469	13.27396392822266	1283.072875976562	172.83740234375	-163.8190002441406	1228.252807617188	4.553607940673828	-133.1953735351562	1501.003295898438	62.30256652832031	-0.3287040889263153	1393.794189453125	166.1707916259766	-244.9016265869141	1375.820678710938	69.57644653320312	-96.41619873046875	1453.041259765625	-31.19852256774902	30.94965362548828	1476.4365234375	-24.69310760498047	84.72936248779297	1358.12060546875	-96.78004455566406	142.7965545654297	1145.152709960938	-116.4887847900391	45.45729446411133	1122.055419921875	-134.4864349365234	224.5602264404297	914.3060302734375	-22.36930274963379	239.6314392089844	894.5746459960938	-106.2891998291016	178.3639831542969	1064.093139648438	-108.6240768432617	252.7302856445312	836.1204833984375	-95.4466552734375	264.5444030761719	843.118408203125	-28.63371849060059	-195.9838256835938	1456.614379882812	213.432373046875	-255.0614318847656	1390.1376953125	248.2712249755859	-288.3258666992188	1100.233764648438	268.3703002929688	-309.5071716308594	1084.236938476562	210.7608337402344	-160.4081268310547	882.5595092773438	332.3822937011719	-238.1979675292969	859.7298583984375	346.4101867675781	-285.6399841308594	1044.802124023438	279.8065490722656	-150.0939636230469	709.6433715820312	338.98583984375	-148.8013153076172	791.0078735351562	361.7735290527344	-222.2313537597656	785.6544799804688	355.8637084960938	-104.3372268676758	1679.985107421875	180.7646179199219	100.117057800293	1672.422119140625	215.4339752197266	-21.54450798034668	1668.252807617188	293.2062683105469	38.61089706420898	1681.578125	97.20375061035156	-199.6128692626953	922.1781616210938	223.701171875	-99.89783477783203	962.7874145507812	236.9882202148438	89.99169158935547	971.0807495117188	36.64514541625977	103.2401275634766	503.8674926757812	28.42500305175781	107.0901107788086	670.981689453125	-6.079174518585205	49.11579895019531	31.09406852722168	-60.07453155517578	69.54634857177734	255.4346160888672	-32.52632141113281	141.8620910644531	40.59654998779297	139.3683776855469	67.98999786376953	43.52828979492188	106.4745101928711	140.5846099853516	34.76488494873047	22.39422416687012	-37.65029525756836	35.55854415893555	-75.50473785400391	-43.73517227172852	510.7296447753906	307.3000793457031	-133.8654327392578	785.6976928710938	273.24951171875	-256.9413452148438	167.4540863037109	57.17330932617188	-79.01640319824219	382.7038269042969	252.3998718261719	-106.2697372436523	51.50061798095703	160.2538299560547	-114.4639511108398	78.87396240234375	89.49156188964844	-199.1990356445312	94.30206298828125	147.9804992675781	-252.2386169433594	188.0595550537109	-16.85268020629883	70.68032073974609	946.568359375	-56.11933517456055	255.1502227783203	747.0657348632812	-29.23349952697754	nan	nan	nan	
